<?xml version="1.0" encoding="utf-8"?>
<!-- Generator: Adobe Illustrator 22.0.1, SVG Export Plug-In . SVG Version: 6.00 Build 0)  -->
<svg version="1.1" id="Layer_1" xmlns="http://www.w3.org/2000/svg" xmlns:xlink="http://www.w3.org/1999/xlink" x="0px" y="0px"
	 viewBox="80 75 624.7 132.7" style="enable-background:new 0 0 784.7 282.7;" xml:space="preserve">
<style type="text/css">
	.st0{fill:#FFFFFF;}
	.st1{fill:#5E20E5;}
	.st2{fill:#1BFEC0;}
</style>
<path class="st0" d="M275,99.5c0-0.7,0.3-1.4,0.8-1.9s1.2-0.8,2.1-0.8h12.7c1.7,0,2.6,0.9,2.7,2.7v73h36.5c0.7,0,1.4,0.3,1.9,0.8
	s0.8,1.2,0.8,2.1v11.4c0,1.7-0.9,2.6-2.7,2.7h-52.1c-1.8,0-2.7-0.9-2.7-2.7L275,99.5L275,99.5z M337.3,143.3c0-4.4,0.6-8.6,1.7-12.7
	c1.1-4.1,2.7-7.9,4.8-11.4c2.1-3.6,4.6-6.8,7.5-9.7c2.9-2.9,6.1-5.4,9.6-7.5s7.3-3.7,11.4-4.8s8.3-1.7,12.7-1.7s8.6,0.6,12.7,1.7
	s7.9,2.7,11.4,4.8s6.8,4.5,9.7,7.5c5.9,5.8,10.1,13.1,12.3,21.1c1.1,4.1,1.7,8.3,1.7,12.7c0,4.4-0.6,8.6-1.7,12.7
	c-1.1,4.1-2.7,7.8-4.8,11.3c-2.1,3.5-4.5,6.7-7.5,9.6c-2.9,2.9-6.1,5.4-9.7,7.5c-3.5,2.1-7.3,3.7-11.4,4.8s-8.3,1.7-12.7,1.7
	c-4.4,0-8.6-0.6-12.7-1.7c-4.1-1.1-7.8-2.7-11.4-4.8c-3.5-2.1-6.7-4.6-9.6-7.5c-2.9-2.9-5.4-6.1-7.5-9.6s-3.7-7.3-4.8-11.3
	C337.8,152,337.3,147.7,337.3,143.3z M355.8,143.3c0,4.2,0.7,8.1,2.2,11.8s3.4,6.9,6,9.6c2.6,2.7,5.6,4.9,9.2,6.5
	c3.5,1.6,7.4,2.4,11.7,2.4c4.2,0,8.1-0.8,11.6-2.4c3.6-1.6,6.6-3.7,9.2-6.5c2.6-2.7,4.6-6,6-9.6c1.5-3.7,2.2-7.6,2.2-11.8
	c0-4.2-0.7-8.2-2.2-11.9s-3.5-6.9-6-9.7c-2.6-2.7-5.6-4.9-9.2-6.5s-7.4-2.4-11.6-2.4s-8.1,0.8-11.7,2.4c-3.5,1.6-6.6,3.8-9.2,6.5
	c-2.6,2.7-4.6,6-6,9.7C356.5,135.1,355.8,139.1,355.8,143.3z M462.3,152.9c0,2.9,0.5,5.7,1.4,8.2c1,2.6,2.3,4.8,4.1,6.8
	c1.7,1.9,3.8,3.5,6.3,4.6c2.4,1.1,5.1,1.7,8,1.7s5.6-0.6,8-1.7c2.4-1.1,4.5-2.7,6.2-4.6c1.7-1.9,3.1-4.2,4.1-6.8s1.4-5.3,1.4-8.2
	V99.7c0-0.7,0.3-1.4,0.8-1.9c0.6-0.5,1.3-0.8,2.1-0.8H517c0.7,0,1.5,0.2,2.1,0.7c0.7,0.5,1,1.2,1,2V153c0,5.2-1,10.2-3,14.8
	c-2,4.6-4.7,8.7-8.2,12.1c-3.5,3.5-7.5,6.2-12.1,8.2s-9.5,3-14.8,3c-3.5,0-6.9-0.5-10.1-1.4c-3.2-0.9-6.3-2.2-9.1-3.9
	c-2.8-1.7-5.4-3.6-7.7-6c-2.3-2.4-4.3-4.9-6-7.7c-1.7-2.8-3-5.9-3.9-9.1s-1.4-6.6-1.4-10.1V99.7c0-0.6,0.2-1.2,0.7-1.8
	c0.5-0.6,1.1-0.9,1.9-0.9h13c0.6,0,1.2,0.3,1.9,0.8s1,1.2,1,1.9L462.3,152.9L462.3,152.9z M616.1,143.3c0,4.4-0.6,8.6-1.7,12.6
	s-2.7,7.7-4.8,11.1c-2.1,3.4-4.6,6.5-7.5,9.3c-2.9,2.8-6.1,5.2-9.6,7.1c-3.5,2-7.3,3.5-11.4,4.5c-4.1,1.1-8.3,1.6-12.7,1.6h-28.7
	c-0.3,0-0.7,0-1-0.1c-0.3,0-0.7-0.1-1-0.3s-0.6-0.4-0.7-0.7c-0.2-0.3-0.3-0.8-0.3-1.4V99.9c0-2.1,1-3.1,3-3.1h28.7
	c4.4,0,8.6,0.6,12.6,1.7c4.1,1.1,7.8,2.6,11.3,4.6s6.7,4.4,9.6,7.2c2.9,2.8,5.4,5.9,7.5,9.4s3.7,7.2,4.8,11.2
	C615.5,134.8,616.1,138.9,616.1,143.3z M555.3,113.7v58.8h11.9c4.2,0,8.1-0.7,11.8-2.2c3.7-1.4,6.9-3.4,9.6-6
	c2.7-2.6,4.9-5.7,6.5-9.2c1.6-3.6,2.4-7.5,2.4-11.8s-0.8-8.2-2.4-11.8c-1.6-3.6-3.8-6.7-6.5-9.4c-2.7-2.6-6-4.7-9.6-6.1
	c-3.7-1.5-7.6-2.2-11.8-2.3C567.2,113.7,555.3,113.7,555.3,113.7z M678.4,121.6c-0.5,0-1-0.1-1.5-0.4c-0.5-0.3-1-0.6-1.6-1.1
	l-0.1-0.1c-0.8-0.8-1.8-1.7-3.1-2.6c-1.2-1-2.6-1.8-4.2-2.7c-1.5-0.8-3.2-1.5-5-2.1c-1.8-0.6-3.6-0.9-5.4-0.9
	c-2.3,0-4.4,0.3-6.2,0.8s-3.3,1.2-4.5,2.1c-1.2,0.9-2.1,1.9-2.7,3.1c-0.6,1.2-0.9,2.5-0.9,3.9c0,1.5,0.5,2.8,1.4,3.9
	c0.9,1.1,2.2,2.1,3.8,3c1.6,0.9,3.4,1.7,5.5,2.4c2.1,0.7,4.3,1.4,6.5,2.1c3.9,1.2,7.8,2.5,11.6,4s7.2,3.3,10.2,5.4
	c3,2.1,5.4,4.7,7.3,7.6c1.8,3,2.8,6.6,2.8,10.8c0,4.5-0.9,8.6-2.7,12.3s-4.4,6.8-7.6,9.4c-3.2,2.6-7,4.6-11.3,6
	c-4.3,1.4-9,2.1-14,2.1c-3.2,0-6.4-0.4-9.5-1.1c-3.2-0.7-6.2-1.8-9.1-3.2c-2.9-1.4-5.7-3-8.3-5c-2.6-1.9-4.9-4.1-7-6.5v0.1l-0.1-0.2
	c-0.9-1-1.4-2-1.4-2.9c0-0.8,0.5-1.7,1.5-2.7l0.9-0.9l1.2-1.1c0.6-0.5,1.3-1.1,2-1.8c0.7-0.7,1.4-1.3,2.1-1.8c0.7-0.5,1.4-1,2-1.4
	c0.6-0.4,1.1-0.6,1.5-0.6c0.6,0,1.1,0.2,1.6,0.6c0.5,0.4,0.9,0.7,1.2,1.1l0.2,0.2h-0.1c1.5,1.4,3.1,2.7,4.9,3.9
	c1.8,1.2,3.7,2.4,5.6,3.3c1.9,1,3.8,1.7,5.7,2.3s3.7,0.8,5.3,0.8c2.3,0,4.4-0.3,6.4-0.9c2-0.6,3.7-1.4,5.2-2.5
	c1.5-1.1,2.6-2.3,3.4-3.8c0.8-1.5,1.2-3.2,1.2-5s-0.5-3.4-1.6-4.7c-1.1-1.3-2.5-2.5-4.2-3.4c-1.7-1-3.7-1.8-5.9-2.5s-4.4-1.4-6.6-2
	c-5.1-1.5-9.5-3.2-13.3-5s-7-3.8-9.5-6s-4.4-4.7-5.7-7.5s-1.9-5.9-1.9-9.3c0-3.9,0.8-7.4,2.3-10.6c1.6-3.2,3.8-5.9,6.6-8.2
	c2.9-2.3,6.3-4,10.4-5.3c4.2-1.1,8.7-1.7,13.7-1.7c3.8,0,7.6,0.6,11.5,1.8s7.5,2.8,10.9,4.9c1,0.6,2,1.3,3.1,2.1
	c1,0.8,2,1.6,2.9,2.4c0.9,0.8,1.6,1.6,2.2,2.4c0.6,0.8,0.8,1.4,0.8,2c0,0.5-0.1,1.1-0.4,1.5c-0.2,0.5-0.6,0.9-0.9,1.4l-1.9,2v-0.1
	c-0.6,0.7-1.3,1.4-1.9,2.1c-0.7,0.7-1.3,1.3-2,1.9s-1.3,1-1.8,1.4C679.2,121.4,678.7,121.6,678.4,121.6L678.4,121.6z"/>
<path class="st1" d="M175.2,96.2c-18.6,0-34.6,10.6-42.4,26.1V99.7c0-0.8-0.3-1.5-0.9-2c-0.6-0.5-1.3-0.7-2.1-0.7h-15.4
	c-1.6,0-3,0.1-4,0.2s-2.1,0.5-3.2,1.2l-11.1,6.7c-1.8,1-2.7,2.3-2.7,3.9v17.3c0,0.8,0.2,1.5,0.7,2.1c0.4,0.6,1,0.9,1.8,0.9
	c0,0,0.7-0.1,1.1-0.3l11.1-6.8v65c0,0.6,0.2,1.2,0.6,1.8c0.4,0.6,1.1,0.8,2.2,0.8h19c2,0,2.9-0.9,2.9-2.7V165
	c7.8,15.5,23.9,26.2,42.4,26.2c26.2,0,47.5-21.3,47.5-47.5C222.7,117.4,201.4,96.2,175.2,96.2z"/>
<path class="st2" d="M212.2,165c-2.6-2.7-4.6-6-6-9.6c-1.4-3.7-2.2-7.6-2.2-11.8s0.7-8.2,2.2-11.9c1.4-3.7,3.4-6.9,6-9.7
	c1.1-1.2,2.3-2.2,3.5-3.1c-3.1-5-7.1-9.5-11.8-13c-1.6,1.2-3,2.5-4.4,3.9c-5.9,5.8-10.1,13.1-12.3,21.1c-1.1,4.1-1.7,8.3-1.7,12.7
	c0,4.4,0.6,8.6,1.7,12.7c1.1,4.1,2.7,7.8,4.8,11.3c2.1,3.5,4.6,6.7,7.5,9.6c1.5,1.5,3.1,2.9,4.7,4.1c4.7-3.6,8.6-8,11.7-13.1
	C214.6,167.3,213.3,166.2,212.2,165z"/>
<path class="st0" d="M215.7,118.9c1.7-1.3,3.6-2.5,5.7-3.4c3.5-1.6,7.4-2.4,11.7-2.4c3.4,0,6.6,0.5,9.6,1.6c3,1,5.8,2.5,8.4,4.4
	c0.9,0.5,1.6,0.7,2.2,0.6c0.6-0.1,1.2-0.6,1.9-1.4l6-10.3c0.5-0.9,0.5-1.7,0.2-2.4c-0.3-0.7-0.9-1.2-1.6-1.6
	c-3.9-2.6-8.1-4.6-12.5-6s-9.1-2.1-14.1-2.1c-4.4,0-8.6,0.6-12.7,1.7s-7.9,2.7-11.4,4.7c-1.8,1.1-3.5,2.2-5.2,3.5
	C208.6,109.4,212.6,113.8,215.7,118.9z M261.4,179l-6.2-10.4c-0.6-0.8-1.2-1.3-1.8-1.4c-0.6-0.1-1.4,0.1-2.3,0.7
	c-2.5,1.9-5.3,3.3-8.4,4.4c-3.1,1-6.3,1.6-9.7,1.6c-4.2,0-8.1-0.8-11.7-2.4c-2-0.9-3.8-2-5.5-3.2c-3.1,5.1-7,9.5-11.7,13.1
	c1.6,1.2,3.2,2.3,4.9,3.3c3.5,2.1,7.3,3.7,11.4,4.8c4.1,1.1,8.3,1.7,12.7,1.7c4.9,0,9.7-0.7,14.2-2.2c4.6-1.4,8.8-3.5,12.6-6.1
	c0.7-0.4,1.2-0.9,1.6-1.6C261.9,180.7,261.8,180,261.4,179L261.4,179z"/>
</svg>
