<?xml version="1.0" encoding="iso-8859-1"?>
<!-- Generator: Adobe Illustrator 19.0.0, SVG Export Plug-In . SVG Version: 6.00 Build 0)  -->
<svg xmlns="http://www.w3.org/2000/svg" xmlns:xlink="http://www.w3.org/1999/xlink" version="1.1" id="Capa_1" x="0px" y="0px" viewBox="0 0 59.653 59.653" style="enable-background:new 0 0 59.653 59.653;" xml:space="preserve" width="512px" height="512px">
<g>
	<g>
		<path d="M9.275,28.905c-2.483,0.964-4.29,3.207-4.714,5.853c-0.087,0.545,0.284,1.058,0.829,1.146    c0.054,0.009,0.107,0.013,0.159,0.013c0.483,0,0.908-0.35,0.986-0.842c0.308-1.918,1.667-3.608,3.463-4.305    c0.515-0.2,0.77-0.779,0.57-1.294C10.37,28.959,9.79,28.702,9.275,28.905z" fill="#5F14FA"/>
		<path d="M51.448,28.905c-0.516-0.201-1.095,0.055-1.294,0.57c-0.2,0.515,0.056,1.094,0.57,1.294    c1.796,0.697,3.155,2.387,3.463,4.305c0.079,0.492,0.503,0.842,0.986,0.842c0.052,0,0.105-0.004,0.159-0.013    c0.545-0.087,0.917-0.6,0.829-1.146C55.738,32.111,53.932,29.868,51.448,28.905z" fill="#5F14FA"/>
		<path d="M47.711,23.93c-1.245,0-2.446,0.193-3.575,0.549l-0.466-1.201c0.015-0.006,0.031-0.003,0.046-0.01    c4.782-2.092,8.625-0.429,11.007,1.333c0.179,0.132,0.387,0.196,0.594,0.196c0.307,0,0.609-0.14,0.805-0.405    c0.329-0.444,0.235-1.07-0.209-1.398c-3.958-2.929-8.56-3.486-12.963-1.572l-0.65-1.677h0.45c0.552,0,1-0.448,1-1s-0.448-1-1-1h-1    v-1h2c0.552,0,1-0.448,1-1c0-0.552-0.448-1-1-1h-6c-0.552,0-1,0.448-1,1c0,0.552,0.448,1,1,1h2v0.456    c-0.011,0.013-0.019,0.029-0.029,0.042c-0.026,0.033-0.061,0.054-0.083,0.09l-0.249,0.412H23.531    c-0.013-0.118-0.041-0.237-0.098-0.35c-0.251-0.491-0.853-0.685-1.346-0.434L15.84,20.16c0.433-3.081,2.007-5.568,3.95-6.218    c0.095,0.454,0.478,0.802,0.96,0.802h2c0.552,0,1-0.448,1-1s-0.448-1-1-1h-0.962c-0.017-0.537-0.453-0.969-0.994-0.969    c-3.937,0-7.024,4.364-7.071,9.956l-0.485,2.272c-0.426-0.046-0.857-0.074-1.295-0.074C5.358,23.93,0,29.301,0,35.903    s5.358,11.974,11.943,11.974s11.943-5.372,11.943-11.974c0-5.47-3.681-10.084-8.686-11.51l0.398-1.862l3.141-1.609l9.984,15.523    c0.006,0.009,0.015,0.016,0.021,0.025c0.013,0.019,0.03,0.034,0.044,0.052c0.002,0.002,0.003,0.004,0.005,0.006    c-0.016,0.072-0.044,0.139-0.044,0.216c0,0.552,0.448,1,1,1h6.174c0.888,5.73,5.827,10.134,11.787,10.134    c6.585,0,11.943-5.372,11.943-11.974C59.654,29.301,54.296,23.93,47.711,23.93z M21.887,35.903c0,5.5-4.46,9.974-9.943,9.974    S2,41.403,2,35.903s4.46-9.975,9.943-9.975c0.295,0,0.586,0.019,0.874,0.044l-2.076,9.721c-0.115,0.541,0.229,1.072,0.769,1.187    c0.071,0.015,0.141,0.022,0.21,0.022c0.462,0,0.876-0.321,0.977-0.791l2.085-9.764C18.886,27.579,21.887,31.393,21.887,35.903z     M35.776,35.744H30.83l9.466-15.637l1.993,5.14C38.469,27.209,35.836,31.167,35.776,35.744z M43.014,27.117l3.346,8.628h-8.584    C37.835,32.015,39.938,28.778,43.014,27.117z M21.932,19.288c0.179,0.269,0.47,0.457,0.818,0.457h15.428l-8.639,14.271    l-9.011-14.009L21.932,19.288z M47.711,45.877c-4.855,0-8.902-3.511-9.766-8.134h9.806c0.552,0,1-0.448,1-1    c0-0.299-0.137-0.559-0.345-0.742c0.043-0.188,0.05-0.385-0.025-0.578l-3.518-9.072c0.903-0.272,1.859-0.422,2.849-0.422    c5.483,0,9.943,4.475,9.943,9.975C57.654,41.403,53.194,45.877,47.711,45.877z" fill="#FFFFFF"/>
	</g>
</g>
<g>
</g>
<g>
</g>
<g>
</g>
<g>
</g>
<g>
</g>
<g>
</g>
<g>
</g>
<g>
</g>
<g>
</g>
<g>
</g>
<g>
</g>
<g>
</g>
<g>
</g>
<g>
</g>
<g>
</g>
</svg>
