<svg xmlns="http://www.w3.org/2000/svg" width="49" height="73" viewBox="0 0 49 73">
  <g fill="none">
    <path fill="#fff"
          d="M24.5 0C12.897.013 2.891 8.036.52 19.228c-2.37 11.191 3.541 22.489 14.17 27.075V58h19.62V46.303c10.63-4.586 16.542-15.883 14.17-27.075C46.109 8.036 36.103.013 24.5 0zm8.83 44.092l-1.472.628v10.875H17.142V44.72l-1.472-.628C6.09 39.972.756 29.796 2.892 19.714 5.027 9.632 14.047 2.408 24.5 2.408c10.453 0 19.473 7.224 21.608 17.306 2.136 10.082-3.198 20.258-12.778 24.378z"/>
    <path fill="#5F38FA" d="M15 61h20v2H15zm0 5h20v2H15zm4.5 7h10c1.38 0 2.5-.895 2.5-2H17c0 1.105 1.12 2 2.5 2z"/>
    <path fill="#fff" d="M21 32h2v22h-2zm5 0h2v22h-2zm2-9h2v6h-2z"/>
    <path fill="#fff" d="M30 23h-2v6h2v-6zm-12 0h2v6h-2z"/>
    <path fill="#fff" d="M20 23h-2v6h2v-6z"/>
    <path fill="#8F8F9B" d="M23 23h2v6h-2z"/>
    <path fill="#fff" d="M25 23h-2v6h2v-6z"/>
    <path fill="#682FE3" d="M6.81 24H5c.013-10.488 8.512-18.987 19-19v1.81C14.511 6.823 6.823 14.51 6.81 24z"/>
  </g>
</svg>
