<svg xmlns="http://www.w3.org/2000/svg" xmlns:xlink="http://www.w3.org/1999/xlink" width="66" height="56"
     viewBox="0 0 66 56">
  <defs>
    <path id="a" d="M16 0h16v56H0V0h16z"/>
  </defs>
  <g fill="none" fill-rule="evenodd">
    <g transform="translate(34)">
      <mask id="b" fill="#fff">
        <use xlink:href="#a"/>
      </mask>
      <path fill="#fff"
            d="M1.726 56L.165 54.455C.37 54.25 20.86 34.019 24.578 29.649c3.264-3.837 5.213-8.793 5.213-13.259 0-8.63-5.896-14.207-15.022-14.207-5.438 0-10.493 2.53-12.878 6.45L0 7.505C2.774 2.946 8.571 0 14.77 0 25.074 0 32 6.587 32 16.39c0 4.965-2.141 10.446-5.73 14.664C22.49 35.496 2.572 55.164 1.726 56"
            mask="url(#b)"/>
    </g>
    <path fill="#fff"
          d="M30.274 56C29.428 55.164 9.51 35.496 5.73 31.054 2.14 26.836 0 21.354 0 16.39 0 6.587 6.925 0 17.23 0 23.43 0 29.227 2.947 32 7.506l-1.89 1.126c-2.386-3.918-7.441-6.45-12.88-6.45C8.106 2.183 2.21 7.76 2.21 16.39c0 4.466 1.95 9.422 5.213 13.259 3.717 4.37 24.207 24.601 24.413 24.806L30.274 56z"/>
    <path fill="#5F38FA" d="M7.12 15H5C5 8.42 9.42 4 16 4v2.2c-5.395 0-8.88 3.455-8.88 8.8"/>
  </g>
</svg>
