<svg xmlns="http://www.w3.org/2000/svg" width="56" height="59" viewBox="0 0 56 59">
  <g fill="none">
    <path fill="#fff"
          d="M28 2c8.284 0 15 6.716 15 15 0 8.284-6.716 15-15 15-8.284 0-15-6.716-15-15 0-8.284 6.716-15 15-15zm0-2c-9.389 0-17 7.611-17 17s7.611 17 17 17 17-7.611 17-17S37.389 0 28 0zM1.94 52H0c.01-7.728 6.272-13.99 14-14v1.94C7.341 39.943 1.944 45.34 1.94 52zM56 52h-1.94c-.003-6.659-5.4-12.056-12.06-12.06V38c7.728.01 13.99 6.272 14 14z"/>
    <path fill="#5F38FA" d="M0 57h56v2H0z"/>
  </g>
</svg>
