<?xml version="1.0" encoding="iso-8859-1"?>
<!-- Generator: Adobe Illustrator 19.0.0, SVG Export Plug-In . SVG Version: 6.00 Build 0)  -->
<svg xmlns="http://www.w3.org/2000/svg" xmlns:xlink="http://www.w3.org/1999/xlink" version="1.1" id="Capa_1" x="0px" y="0px" viewBox="0 0 511.999 511.999" style="enable-background:new 0 0 511.999 511.999;" xml:space="preserve" width="512px" height="512px">
<g>
	<g>
		<path d="M511.994,300.901c-0.001-0.107-0.01-0.214-0.016-0.32c-0.01-0.17-0.021-0.34-0.042-0.507    c-0.012-0.097-0.028-0.194-0.044-0.291c-0.03-0.181-0.065-0.36-0.108-0.537c-0.011-0.046-0.016-0.093-0.028-0.138l-10.039-38.446    c-1.046-4.007-5.141-6.405-9.152-5.362c-4.008,1.046-6.408,5.144-5.362,9.152l7.586,29.051H411.27v-74.998h63.936l4.053,15.524    c1.047,4.008,5.142,6.409,9.152,5.362c4.007-1.046,6.408-5.144,5.362-9.152l-5.274-20.197v-29.036c0-4.142-3.358-7.5-7.5-7.5    h-172.5v-22.5c0-4.142-3.358-7.5-7.5-7.5h-16.774l42.122-25.845c4.064-2.494,6.49-6.85,6.49-11.654    c0-4.804-2.426-9.16-6.491-11.654L263.009,55.49c-4.324-2.654-9.697-2.654-14.019,0l-18.021,11.056    c-3.531,2.166-4.636,6.785-2.47,10.315c2.167,3.531,6.785,4.637,10.315,2.47l17.185-10.544l60.66,37.219l-60.66,37.22    l-60.66-37.219l17.432-10.696c3.531-2.166,4.637-6.784,2.47-10.315c-2.166-3.53-6.783-4.637-10.315-2.47l-19.275,11.826    c-4.064,2.494-6.49,6.85-6.49,11.654c0,4.804,2.426,9.16,6.491,11.654l42.122,25.845h-16.775c-4.142,0-7.5,3.358-7.5,7.5v22.5    h-172.5c-4.142,0-7.5,3.358-7.5,7.5v29.036L0.242,299.108c-0.012,0.045-0.016,0.091-0.027,0.136    c-0.043,0.178-0.078,0.358-0.108,0.54c-0.016,0.096-0.032,0.193-0.044,0.289c-0.021,0.167-0.033,0.337-0.042,0.508    c-0.006,0.107-0.015,0.213-0.016,0.32c0,0.034-0.005,0.067-0.005,0.101V421c0,4.142,3.358,7.5,7.5,7.5h42.173    c7.867,18.15,25.641,29.999,45.836,29.999s37.969-11.849,45.837-29.999h15.316c7.868,18.151,25.642,29.999,45.837,29.999    c20.205,0,37.979-11.848,45.839-29.999h15.322c7.86,18.151,25.635,29.999,45.839,29.999c20.195,0,37.969-11.848,45.837-29.999    h15.316c7.868,18.151,25.643,29.999,45.837,29.999c20.194,0,37.969-11.849,45.837-29.999h42.173c4.142,0,7.5-3.358,7.5-7.5    V301.002C511.999,300.968,511.994,300.935,511.994,300.901z M218.499,158.505h37.271c0.076,0.001,0.153,0.008,0.229,0.008    s0.152-0.007,0.228-0.008h37.272v15h-75V158.505z M38.499,188.504h435v15h-435V188.504z M396.27,218.504v74.998H313v-74.998    H396.27z M297.634,218.504v74.998h-83.27v-74.998H297.634z M36.792,218.504h63.936v74.998H17.209L36.792,218.504z M95.509,443.499    c-11.768,0-22.36-5.748-28.758-15h57.516C117.869,437.752,107.277,443.499,95.509,443.499z M202.499,443.499    c-11.768,0-22.36-5.748-28.758-15h57.521C224.868,437.752,214.274,443.499,202.499,443.499z M309.499,443.499    c-11.775,0-22.369-5.748-28.763-15h57.521C331.859,437.752,321.267,443.499,309.499,443.499z M416.489,443.499    c-11.768,0-22.36-5.748-28.758-15h57.516C438.849,437.752,428.257,443.499,416.489,443.499z M496.999,413.5h-482v-15h482V413.5z     M496.999,383.501h-482v-74.999h118c4.142,0,7.5-3.358,7.5-7.5c0-4.142-3.358-7.5-7.5-7.5h-17.271v-74.998h83.27v74.998h-33.999    c-4.142,0-7.5,3.358-7.5,7.5c0,4.142,3.358,7.5,7.5,7.5h332V383.501z" fill="#FFFFFF"/>
	</g>
</g>
<g>
	<g>
		<path d="M112.285,323.502H37.499c-4.142,0-7.5,3.358-7.5,7.5v29.999c0,4.142,3.358,7.5,7.5,7.5h74.786c4.142,0,7.5-3.358,7.5-7.5    v-29.999C119.785,326.86,116.427,323.502,112.285,323.502z M104.785,353.501H44.999v-15h59.786V353.501z" fill="#5F38FA"/>
	</g>
</g>
<g>
	<g>
		<path d="M432.999,326.002h-53c-4.142,0-7.5,3.358-7.5,7.5c0,4.142,3.358,7.5,7.5,7.5h53c4.142,0,7.5-3.358,7.5-7.5    C440.499,329.36,437.141,326.002,432.999,326.002z" fill="#5F38FA"/>
	</g>
</g>
<g>
	<g>
		<path d="M432.999,353.501h-53c-4.142,0-7.5,3.358-7.5,7.5c0,4.142,3.358,7.5,7.5,7.5h53c4.142,0,7.5-3.358,7.5-7.5    C440.499,356.859,437.141,353.501,432.999,353.501z" fill="#5F38FA"/>
	</g>
</g>
<g>
</g>
<g>
</g>
<g>
</g>
<g>
</g>
<g>
</g>
<g>
</g>
<g>
</g>
<g>
</g>
<g>
</g>
<g>
</g>
<g>
</g>
<g>
</g>
<g>
</g>
<g>
</g>
<g>
</g>
</svg>
